<svg width="48" height="48" viewBox="0 0 48 48" fill="none" xmlns="http://www.w3.org/2000/svg">
<mask id="path-1-inside-1_2403_3627" fill="white">
<path fill-rule="evenodd" clip-rule="evenodd" d="M15.2648 5C13.8597 5 12.5577 5.7372 11.8348 6.94202L10 10H6.5C5.11929 10 4 11.1193 4 12.5C4 13.8807 5.11929 15 6.5 15H37.5C38.8807 15 40 13.8807 40 12.5C40 11.1193 38.8807 10 37.5 10H34L32.1652 6.94202C31.4423 5.7372 30.1403 5 28.7352 5H15.2648ZM29.25 10C29.25 9.17157 28.5784 8.5 27.75 8.5H22H16.25C15.4216 8.5 14.75 9.17157 14.75 10H29.25Z"/>
</mask>
<path fill-rule="evenodd" clip-rule="evenodd" d="M15.2648 5C13.8597 5 12.5577 5.7372 11.8348 6.94202L10 10H6.5C5.11929 10 4 11.1193 4 12.5C4 13.8807 5.11929 15 6.5 15H37.5C38.8807 15 40 13.8807 40 12.5C40 11.1193 38.8807 10 37.5 10H34L32.1652 6.94202C31.4423 5.7372 30.1403 5 28.7352 5H15.2648ZM29.25 10C29.25 9.17157 28.5784 8.5 27.75 8.5H22H16.25C15.4216 8.5 14.75 9.17157 14.75 10H29.25Z" fill="#101010"/>
<path d="M11.8348 6.94202L12.6923 7.45651H12.6923L11.8348 6.94202ZM10 10V11H10.5662L10.8575 10.5145L10 10ZM34 10L33.1425 10.5145L33.4338 11H34V10ZM32.1652 6.94202L31.3077 7.45651L32.1652 6.94202ZM29.25 10V11H30.25V10H29.25ZM14.75 10H13.75V11H14.75V10ZM12.6923 7.45651C13.2345 6.5529 14.211 6 15.2648 6V4C13.5084 4 11.8809 4.9215 10.9773 6.42752L12.6923 7.45651ZM10.8575 10.5145L12.6923 7.45651L10.9773 6.42752L9.14251 9.4855L10.8575 10.5145ZM6.5 11H10V9H6.5V11ZM5 12.5C5 11.6716 5.67157 11 6.5 11V9C4.567 9 3 10.567 3 12.5H5ZM6.5 14C5.67157 14 5 13.3284 5 12.5H3C3 14.433 4.567 16 6.5 16V14ZM37.5 14H6.5V16H37.5V14ZM39 12.5C39 13.3284 38.3284 14 37.5 14V16C39.433 16 41 14.433 41 12.5H39ZM37.5 11C38.3284 11 39 11.6716 39 12.5H41C41 10.567 39.433 9 37.5 9V11ZM34 11H37.5V9H34V11ZM31.3077 7.45651L33.1425 10.5145L34.8575 9.4855L33.0227 6.42752L31.3077 7.45651ZM28.7352 6C29.789 6 30.7655 6.5529 31.3077 7.45651L33.0227 6.42752C32.1191 4.92149 30.4916 4 28.7352 4V6ZM15.2648 6H28.7352V4H15.2648V6ZM30.25 10C30.25 8.61929 29.1307 7.5 27.75 7.5V9.5C28.0261 9.5 28.25 9.72386 28.25 10H30.25ZM27.75 7.5H22V9.5H27.75V7.5ZM22 7.5H16.25V9.5H22V7.5ZM16.25 7.5C14.8693 7.5 13.75 8.61929 13.75 10H15.75C15.75 9.72386 15.9739 9.5 16.25 9.5V7.5ZM14.75 11H29.25V9H14.75V11Z" fill="#101010" mask="url(#path-1-inside-1_2403_3627)"/>
<mask id="path-3-inside-2_2403_3627" fill="white">
<path fill-rule="evenodd" clip-rule="evenodd" d="M17.2648 3C15.8597 3 14.5577 3.7372 13.8348 4.94202L12 8H8.5C7.11929 8 6 9.11929 6 10.5C6 11.8807 7.11929 13 8.5 13H39.5C40.8807 13 42 11.8807 42 10.5C42 9.11929 40.8807 8 39.5 8H36L34.1652 4.94202C33.4423 3.7372 32.1403 3 30.7352 3H17.2648ZM31.25 8C31.25 7.17157 30.5784 6.5 29.75 6.5H24H18.25C17.4216 6.5 16.75 7.17157 16.75 8H31.25Z"/>
</mask>
<path fill-rule="evenodd" clip-rule="evenodd" d="M17.2648 3C15.8597 3 14.5577 3.7372 13.8348 4.94202L12 8H8.5C7.11929 8 6 9.11929 6 10.5C6 11.8807 7.11929 13 8.5 13H39.5C40.8807 13 42 11.8807 42 10.5C42 9.11929 40.8807 8 39.5 8H36L34.1652 4.94202C33.4423 3.7372 32.1403 3 30.7352 3H17.2648ZM31.25 8C31.25 7.17157 30.5784 6.5 29.75 6.5H24H18.25C17.4216 6.5 16.75 7.17157 16.75 8H31.25Z" fill="#FFC700"/>
<path d="M13.8348 4.94202L14.6923 5.45651H14.6923L13.8348 4.94202ZM12 8V9H12.5662L12.8575 8.5145L12 8ZM36 8L35.1425 8.5145L35.4338 9H36V8ZM34.1652 4.94202L33.3077 5.45651L34.1652 4.94202ZM31.25 8V9H32.25V8H31.25ZM16.75 8H15.75V9H16.75V8ZM14.6923 5.45651C15.2345 4.5529 16.211 4 17.2648 4V2C15.5084 2 13.8809 2.9215 12.9773 4.42752L14.6923 5.45651ZM12.8575 8.5145L14.6923 5.45651L12.9773 4.42752L11.1425 7.4855L12.8575 8.5145ZM8.5 9H12V7H8.5V9ZM7 10.5C7 9.67157 7.67157 9 8.5 9V7C6.567 7 5 8.567 5 10.5H7ZM8.5 12C7.67157 12 7 11.3284 7 10.5H5C5 12.433 6.567 14 8.5 14V12ZM39.5 12H8.5V14H39.5V12ZM41 10.5C41 11.3284 40.3284 12 39.5 12V14C41.433 14 43 12.433 43 10.5H41ZM39.5 9C40.3284 9 41 9.67157 41 10.5H43C43 8.567 41.433 7 39.5 7V9ZM36 9H39.5V7H36V9ZM33.3077 5.45651L35.1425 8.5145L36.8575 7.4855L35.0227 4.42752L33.3077 5.45651ZM30.7352 4C31.789 4 32.7655 4.5529 33.3077 5.45651L35.0227 4.42752C34.1191 2.92149 32.4916 2 30.7352 2V4ZM17.2648 4H30.7352V2H17.2648V4ZM32.25 8C32.25 6.61929 31.1307 5.5 29.75 5.5V7.5C30.0261 7.5 30.25 7.72386 30.25 8H32.25ZM29.75 5.5H24V7.5H29.75V5.5ZM24 5.5H18.25V7.5H24V5.5ZM18.25 5.5C16.8693 5.5 15.75 6.61929 15.75 8H17.75C17.75 7.72386 17.9739 7.5 18.25 7.5V5.5ZM16.75 9H31.25V7H16.75V9Z" fill="#101010" mask="url(#path-3-inside-2_2403_3627)"/>
<mask id="path-5-inside-3_2403_3627" fill="white">
<path fill-rule="evenodd" clip-rule="evenodd" d="M8 16C6.89543 16 6 16.8954 6 18V38C6 42.4183 9.58172 46 14 46H30C34.4183 46 38 42.4183 38 38V18C38 16.8954 37.1046 16 36 16H8ZM22 20C20.8954 20 20 20.8954 20 22V38C20 39.1046 20.8954 40 22 40C23.1046 40 24 39.1046 24 38V22C24 20.8954 23.1046 20 22 20ZM29 22C29 20.8954 29.8954 20 31 20C32.1046 20 33 20.8954 33 22V30C33 31.1046 32.1046 32 31 32C29.8954 32 29 31.1046 29 30V22ZM13 20C11.8954 20 11 20.8954 11 22V30C11 31.1046 11.8954 32 13 32C14.1046 32 15 31.1046 15 30V22C15 20.8954 14.1046 20 13 20Z"/>
</mask>
<path fill-rule="evenodd" clip-rule="evenodd" d="M8 16C6.89543 16 6 16.8954 6 18V38C6 42.4183 9.58172 46 14 46H30C34.4183 46 38 42.4183 38 38V18C38 16.8954 37.1046 16 36 16H8ZM22 20C20.8954 20 20 20.8954 20 22V38C20 39.1046 20.8954 40 22 40C23.1046 40 24 39.1046 24 38V22C24 20.8954 23.1046 20 22 20ZM29 22C29 20.8954 29.8954 20 31 20C32.1046 20 33 20.8954 33 22V30C33 31.1046 32.1046 32 31 32C29.8954 32 29 31.1046 29 30V22ZM13 20C11.8954 20 11 20.8954 11 22V30C11 31.1046 11.8954 32 13 32C14.1046 32 15 31.1046 15 30V22C15 20.8954 14.1046 20 13 20Z" fill="#101010"/>
<path d="M7 18C7 17.4477 7.44772 17 8 17V15C6.34315 15 5 16.3431 5 18H7ZM7 38V18H5V38H7ZM14 45C10.134 45 7 41.866 7 38H5C5 42.9706 9.02944 47 14 47V45ZM30 45H14V47H30V45ZM37 38C37 41.866 33.866 45 30 45V47C34.9706 47 39 42.9706 39 38H37ZM37 18V38H39V18H37ZM36 17C36.5523 17 37 17.4477 37 18H39C39 16.3431 37.6569 15 36 15V17ZM8 17H36V15H8V17ZM21 22C21 21.4477 21.4477 21 22 21V19C20.3431 19 19 20.3431 19 22H21ZM21 38V22H19V38H21ZM22 39C21.4477 39 21 38.5523 21 38H19C19 39.6569 20.3431 41 22 41V39ZM23 38C23 38.5523 22.5523 39 22 39V41C23.6569 41 25 39.6569 25 38H23ZM23 22V38H25V22H23ZM22 21C22.5523 21 23 21.4477 23 22H25C25 20.3431 23.6569 19 22 19V21ZM31 19C29.3431 19 28 20.3431 28 22H30C30 21.4477 30.4477 21 31 21V19ZM34 22C34 20.3431 32.6569 19 31 19V21C31.5523 21 32 21.4477 32 22H34ZM34 30V22H32V30H34ZM31 33C32.6569 33 34 31.6569 34 30H32C32 30.5523 31.5523 31 31 31V33ZM28 30C28 31.6569 29.3431 33 31 33V31C30.4477 31 30 30.5523 30 30H28ZM28 22V30H30V22H28ZM12 22C12 21.4477 12.4477 21 13 21V19C11.3431 19 10 20.3431 10 22H12ZM12 30V22H10V30H12ZM13 31C12.4477 31 12 30.5523 12 30H10C10 31.6569 11.3431 33 13 33V31ZM14 30C14 30.5523 13.5523 31 13 31V33C14.6569 33 16 31.6569 16 30H14ZM14 22V30H16V22H14ZM13 21C13.5523 21 14 21.4477 14 22H16C16 20.3431 14.6569 19 13 19V21Z" fill="#101010" mask="url(#path-5-inside-3_2403_3627)"/>
<mask id="path-7-inside-4_2403_3627" fill="white">
<path fill-rule="evenodd" clip-rule="evenodd" d="M10 14C8.89543 14 8 14.8954 8 16V36C8 40.4183 11.5817 44 16 44H32C36.4183 44 40 40.4183 40 36V16C40 14.8954 39.1046 14 38 14H10ZM24 18C22.8954 18 22 18.8954 22 20V36C22 37.1046 22.8954 38 24 38C25.1046 38 26 37.1046 26 36V20C26 18.8954 25.1046 18 24 18ZM31 20C31 18.8954 31.8954 18 33 18C34.1046 18 35 18.8954 35 20V28C35 29.1046 34.1046 30 33 30C31.8954 30 31 29.1046 31 28V20ZM15 18C13.8954 18 13 18.8954 13 20V28C13 29.1046 13.8954 30 15 30C16.1046 30 17 29.1046 17 28V20C17 18.8954 16.1046 18 15 18Z"/>
</mask>
<path fill-rule="evenodd" clip-rule="evenodd" d="M10 14C8.89543 14 8 14.8954 8 16V36C8 40.4183 11.5817 44 16 44H32C36.4183 44 40 40.4183 40 36V16C40 14.8954 39.1046 14 38 14H10ZM24 18C22.8954 18 22 18.8954 22 20V36C22 37.1046 22.8954 38 24 38C25.1046 38 26 37.1046 26 36V20C26 18.8954 25.1046 18 24 18ZM31 20C31 18.8954 31.8954 18 33 18C34.1046 18 35 18.8954 35 20V28C35 29.1046 34.1046 30 33 30C31.8954 30 31 29.1046 31 28V20ZM15 18C13.8954 18 13 18.8954 13 20V28C13 29.1046 13.8954 30 15 30C16.1046 30 17 29.1046 17 28V20C17 18.8954 16.1046 18 15 18Z" fill="#FF2626"/>
<path d="M9 16C9 15.4477 9.44772 15 10 15V13C8.34315 13 7 14.3431 7 16H9ZM9 36V16H7V36H9ZM16 43C12.134 43 9 39.866 9 36H7C7 40.9706 11.0294 45 16 45V43ZM32 43H16V45H32V43ZM39 36C39 39.866 35.866 43 32 43V45C36.9706 45 41 40.9706 41 36H39ZM39 16V36H41V16H39ZM38 15C38.5523 15 39 15.4477 39 16H41C41 14.3431 39.6569 13 38 13V15ZM10 15H38V13H10V15ZM23 20C23 19.4477 23.4477 19 24 19V17C22.3431 17 21 18.3431 21 20H23ZM23 36V20H21V36H23ZM24 37C23.4477 37 23 36.5523 23 36H21C21 37.6569 22.3431 39 24 39V37ZM25 36C25 36.5523 24.5523 37 24 37V39C25.6569 39 27 37.6569 27 36H25ZM25 20V36H27V20H25ZM24 19C24.5523 19 25 19.4477 25 20H27C27 18.3431 25.6569 17 24 17V19ZM33 17C31.3431 17 30 18.3431 30 20H32C32 19.4477 32.4477 19 33 19V17ZM36 20C36 18.3431 34.6569 17 33 17V19C33.5523 19 34 19.4477 34 20H36ZM36 28V20H34V28H36ZM33 31C34.6569 31 36 29.6569 36 28H34C34 28.5523 33.5523 29 33 29V31ZM30 28C30 29.6569 31.3431 31 33 31V29C32.4477 29 32 28.5523 32 28H30ZM30 20V28H32V20H30ZM14 20C14 19.4477 14.4477 19 15 19V17C13.3431 17 12 18.3431 12 20H14ZM14 28V20H12V28H14ZM15 29C14.4477 29 14 28.5523 14 28H12C12 29.6569 13.3431 31 15 31V29ZM16 28C16 28.5523 15.5523 29 15 29V31C16.6569 31 18 29.6569 18 28H16ZM16 20V28H18V20H16ZM15 19C15.5523 19 16 19.4477 16 20H18C18 18.3431 16.6569 17 15 17V19Z" fill="#101010" mask="url(#path-7-inside-4_2403_3627)"/>
</svg>
