<svg width="126" height="153" viewBox="0 0 126 153" fill="none" xmlns="http://www.w3.org/2000/svg">
<g filter="url(#filter0_d_548_622)">
<path d="M96.7895 148.021L1 125.396C10.9755 100.345 31.7622 1 31.7622 1L101.662 17.51C110.73 19.6496 122.68 31.2209 120.972 38.6557C108.152 94.4439 96.7717 148.021 96.7717 148.021H96.7895Z" fill="white" stroke="black" stroke-width="0.75" stroke-linejoin="round"/>
<path d="M58.2211 26.8526C55.7139 26.4247 43.1957 23.7325 41.4353 23.055C39.3371 22.3061 37.9323 20.541 38.3946 18.5798C38.8569 16.6186 40.6707 15.3705 43.1068 15.941C45.5428 16.5116 54.487 18.6333 59.8926 19.7387C62.3287 20.2023 63.3956 22.2526 62.9332 24.2139C62.4709 26.1751 60.7106 27.2805 58.2211 26.8526Z" fill="#FFC700"/>
<path d="M39.5154 79.485C37.7373 79.1819 28.882 77.2742 27.6373 76.7928C26.1614 76.2579 25.1479 75.0099 25.4857 73.6192C25.8058 72.2285 27.1039 71.337 28.8287 71.7471C30.5535 72.1572 36.9015 73.6548 40.7068 74.4393C42.4316 74.7602 43.1962 76.2223 42.8584 77.613C42.5383 79.0037 41.2936 79.7881 39.5154 79.485Z" fill="#FFC700"/>
<path d="M105.911 49.7634C99.3322 48.6401 45.1516 36.1239 42.2888 35.3394C39.426 34.5549 38.7325 34.4123 37.1144 33.9309C36.2075 33.6813 35.6563 32.7541 35.9052 31.8805C36.1364 30.989 37.0788 30.472 37.9857 30.7216C37.9857 30.7216 39.1948 31.0425 43.1601 32.1301C55.874 35.589 106.783 46.5541 106.783 46.5541C107.69 46.8037 108.241 47.7308 107.992 48.6045C107.761 49.4959 106.818 50.013 105.911 49.7634Z" fill="#5CF1A4"/>
<path d="M103.546 59.5518C96.9668 58.4285 42.7863 45.9123 39.9234 45.1278C37.0606 44.3433 36.3671 44.2007 34.749 43.7193C33.8422 43.4696 33.2909 42.5425 33.5399 41.6689C33.771 40.7774 34.7134 40.2604 35.6203 40.51C35.6203 40.51 36.8295 40.8309 40.7948 41.9185C53.5086 45.3774 104.417 56.3425 104.417 56.3425C105.324 56.5921 105.875 57.5192 105.626 58.3929C105.395 59.2843 104.453 59.8014 103.546 59.5518Z" fill="#5CF1A4"/>
<path d="M86.6716 103.608C80.0924 102.485 43.8891 93.8913 41.0263 93.1068C38.1634 92.3223 37.4699 92.1797 35.8518 91.6983C34.9449 91.4486 34.3937 90.5215 34.6426 89.6479C34.8738 88.7564 35.8163 88.2394 36.7231 88.489C36.7231 88.489 37.9322 88.8099 41.8975 89.8975C54.6114 93.3564 87.5429 100.399 87.5429 100.399C88.4498 100.649 89.001 101.576 88.7521 102.449C88.5209 103.341 87.5785 103.858 86.6716 103.608Z" fill="#5CF1A4"/>
<path d="M101.199 70.089C94.62 68.9657 40.1728 56.0572 37.3099 55.2727C34.4471 54.4882 33.7536 54.3456 32.1355 53.8642C31.2286 53.6146 30.6774 52.6875 30.9263 51.8138C31.1575 50.9224 32.0999 50.4053 33.0068 50.6549C33.0068 50.6549 34.2159 50.9759 38.1812 52.0634C50.8951 55.5224 102.071 66.8797 102.071 66.8797C102.977 67.1293 103.529 68.0564 103.28 68.9301C103.049 69.8215 102.106 70.3386 101.199 70.089Z" fill="#5CF1A4"/>
<path d="M98.6028 81.1611C92.0236 80.0378 37.5763 67.1293 34.7135 66.3448C31.8507 65.5603 31.1572 65.4177 29.539 64.9363C28.6322 64.6867 28.081 63.7596 28.3299 62.8859C28.5611 61.9944 29.5035 61.4774 30.4103 61.727C30.4103 61.727 31.6195 62.0479 35.5848 63.1355C48.2986 66.5944 99.4741 77.9518 99.4741 77.9518C100.381 78.2014 100.932 79.1285 100.683 80.0022C100.452 80.8936 99.5096 81.4107 98.6028 81.1611Z" fill="#5CF1A4"/>
<path d="M121.204 36.6589C119.799 34.0558 112.811 31.1139 106.409 33.1643C107.974 28.6891 106.854 19.0969 101.662 17.5101C101.662 17.5101 107.672 18.4015 114.411 25.1411C121.15 31.8984 121.204 36.6589 121.204 36.6589Z" fill="#5CF1A4" stroke="black" stroke-width="0.75" stroke-linecap="round" stroke-linejoin="round"/>
<path d="M27.2272 92.5719C26.9427 92.5719 26.6582 92.5362 26.3915 92.4649L24.6666 92.0548C23.7242 91.8409 22.9241 91.2525 22.4084 90.4324C21.8927 89.6122 21.7327 88.6316 21.9639 87.6866L22.3728 85.9572C22.8351 84.0138 24.7911 82.7836 26.7293 83.2471L28.4541 83.6572C30.3923 84.1208 31.6193 86.082 31.1569 88.0254L30.748 89.7549C30.5346 90.6998 29.9478 91.5021 29.1298 92.0192C28.543 92.3758 27.9029 92.5719 27.2272 92.5719ZM25.9114 84.5843C24.8978 84.5843 23.9909 85.2797 23.7598 86.2959L23.3508 88.0254C23.0663 89.22 23.8131 90.4145 25.0045 90.6998L26.7293 91.1099C27.9207 91.3952 29.112 90.6463 29.3966 89.4518L29.8055 87.7223C30.0901 86.5277 29.3432 85.3332 28.1518 85.0479L26.427 84.6378C26.2492 84.6022 26.0892 84.5843 25.9114 84.5843Z" fill="#5CF1A4"/>
<path d="M89.0544 116.321C82.4752 115.197 41.1863 105.391 38.3235 104.625C35.4606 103.84 34.7671 103.697 33.149 103.216C32.2422 102.966 31.6909 102.039 31.9399 101.166C32.171 100.274 33.1135 99.7571 34.0203 100.007C34.0203 100.007 35.2295 100.328 39.1948 101.415C51.9086 104.874 89.9257 113.111 89.9257 113.111C90.8326 113.361 91.3838 114.288 91.1348 115.162C90.9037 116.053 89.9612 116.57 89.0544 116.321Z" fill="#5CF1A4"/>
<path d="M24.5245 104.09C24.24 104.09 23.9554 104.054 23.6887 103.983L21.9639 103.573C21.0215 103.359 20.2213 102.77 19.7056 101.95C19.19 101.13 19.0299 100.149 19.2611 99.2043L19.6701 97.4749C19.8834 96.5299 20.4702 95.7276 21.2882 95.2105C22.1062 94.6935 23.0842 94.533 24.0266 94.7648L25.7514 95.1749C27.6896 95.6384 28.9165 97.5997 28.4542 99.5431L28.0452 101.273C27.8318 102.217 27.245 103.02 26.4271 103.537C25.8403 103.893 25.2002 104.09 24.5245 104.09ZM23.2086 96.102C22.7996 96.102 22.4085 96.209 22.0528 96.4408C21.5549 96.7439 21.1993 97.2431 21.057 97.8136L20.6481 99.5431C20.3636 100.738 21.1104 101.932 22.3018 102.217L24.0266 102.628C25.2179 102.913 26.4093 102.164 26.6938 100.969L27.1028 99.24C27.3873 98.0454 26.6405 96.8508 25.4491 96.5656L23.7243 96.1555C23.5465 96.1198 23.3864 96.102 23.2086 96.102Z" fill="#5CF1A4"/>
<path d="M60.3372 121.883C53.758 120.76 38.6792 117.159 35.8164 116.374C32.9536 115.59 32.2601 115.447 30.6419 114.966C29.7351 114.716 29.1839 113.789 29.4328 112.915C29.664 112.024 30.6064 111.507 31.5132 111.756C31.5132 111.756 32.7224 112.077 36.6877 113.165C49.4016 116.624 61.2085 118.674 61.2085 118.674C62.1154 118.924 62.6666 119.851 62.4177 120.725C62.1865 121.616 61.2441 122.133 60.3372 121.883Z" fill="#5CF1A4"/>
<path d="M22.0173 115.839C21.7506 115.839 21.4661 115.804 21.1816 115.75L19.4567 115.34C17.5186 114.876 16.2916 112.915 16.7539 110.972L17.1629 109.242C17.3763 108.297 17.9631 107.495 18.781 106.978C19.599 106.461 20.577 106.3 21.5194 106.532L23.2442 106.942C24.1867 107.156 24.9868 107.745 25.5025 108.565C26.0181 109.385 26.1782 110.366 25.947 111.311L25.5381 113.04C25.1469 114.716 23.6532 115.839 21.9995 115.839H22.0173ZM21.5016 114.359C22.6752 114.645 23.8844 113.896 24.1689 112.701L24.5779 110.972C24.8624 109.777 24.1155 108.583 22.9242 108.297L21.1993 107.887C20.008 107.602 18.8166 108.351 18.5321 109.545L18.1231 111.275C17.8386 112.469 18.5854 113.664 19.7768 113.949L21.5016 114.359Z" fill="#5CF1A4"/>
</g>
<defs>
<filter id="filter0_d_548_622" x="0.625" y="0.625" width="124.954" height="151.771" filterUnits="userSpaceOnUse" color-interpolation-filters="sRGB">
<feFlood flood-opacity="0" result="BackgroundImageFix"/>
<feColorMatrix in="SourceAlpha" type="matrix" values="0 0 0 0 0 0 0 0 0 0 0 0 0 0 0 0 0 0 127 0" result="hardAlpha"/>
<feOffset dx="4" dy="4"/>
<feComposite in2="hardAlpha" operator="out"/>
<feColorMatrix type="matrix" values="0 0 0 0 0 0 0 0 0 0 0 0 0 0 0 0 0 0 1 0"/>
<feBlend mode="normal" in2="BackgroundImageFix" result="effect1_dropShadow_548_622"/>
<feBlend mode="normal" in="SourceGraphic" in2="effect1_dropShadow_548_622" result="shape"/>
</filter>
</defs>
</svg>
