<svg width="358" height="358" viewBox="0 0 358 358" fill="none" xmlns="http://www.w3.org/2000/svg">
<path d="M128.946 48.3269C153.156 72.5106 165.399 105.027 171.582 131.571C174.672 144.834 176.242 156.58 177.04 165.009C177.44 169.223 177.645 172.606 177.751 174.932C177.802 176.042 177.83 176.911 177.845 177.516C177.266 177.526 176.432 177.535 175.367 177.53C173.134 177.521 169.886 177.453 165.833 177.22C157.727 176.755 146.41 175.628 133.576 172.984C107.888 167.693 76.218 156.345 52.0075 132.161C27.797 107.977 15.5542 75.4613 9.37112 48.9171C6.28179 35.6545 4.71104 23.9079 3.91285 15.4791C3.51381 11.2654 3.30802 7.88246 3.20201 5.55594C3.15143 4.44607 3.12357 3.57673 3.10827 2.97242C3.68763 2.96211 4.52133 2.95338 5.58636 2.95788C7.81888 2.9673 11.0673 3.03483 15.1199 3.26767C23.226 3.73343 34.543 4.86028 47.3777 7.50405C73.0655 12.7954 104.735 24.1432 128.946 48.3269Z" fill="#FFC700" stroke="black" stroke-width="4"/>
<path d="M228.738 48.3269C204.528 72.5106 192.285 105.027 186.102 131.571C183.013 144.834 181.442 156.58 180.644 165.009C180.245 169.223 180.039 172.606 179.933 174.932C179.882 176.042 179.854 176.911 179.839 177.516C180.418 177.526 181.252 177.535 182.317 177.53C184.55 177.521 187.798 177.453 191.851 177.22C199.957 176.755 211.274 175.628 224.108 172.984C249.796 167.693 281.466 156.345 305.677 132.161C329.887 107.977 342.13 75.4613 348.313 48.9171C351.402 35.6545 352.973 23.9079 353.771 15.4791C354.17 11.2654 354.376 7.88246 354.482 5.55594C354.533 4.44607 354.561 3.57673 354.576 2.97242C353.997 2.96211 353.163 2.95338 352.098 2.95788C349.865 2.9673 346.617 3.03483 342.564 3.26767C334.458 3.73343 323.141 4.86028 310.306 7.50405C284.619 12.7954 252.949 24.1432 228.738 48.3269Z" fill="#FFC700" stroke="black" stroke-width="4"/>
<path d="M128.946 308.628C153.156 284.444 165.399 251.928 171.582 225.384C174.672 212.121 176.242 200.374 177.04 191.946C177.44 187.732 177.645 184.349 177.751 182.022C177.802 180.913 177.83 180.043 177.845 179.439C177.266 179.429 176.432 179.42 175.367 179.424C173.134 179.434 169.886 179.501 165.833 179.734C157.727 180.2 146.41 181.327 133.576 183.971C107.888 189.262 76.218 200.61 52.0075 224.793C27.797 248.977 15.5542 281.493 9.37112 308.038C6.28179 321.3 4.71104 333.047 3.91285 341.475C3.51381 345.689 3.30802 349.072 3.20201 351.399C3.15143 352.509 3.12357 353.378 3.10827 353.982C3.68763 353.992 4.52133 354.001 5.58636 353.997C7.81888 353.987 11.0673 353.92 15.1199 353.687C23.226 353.221 34.543 352.094 47.3777 349.451C73.0655 344.159 104.735 332.811 128.946 308.628Z" fill="#FFC700" stroke="black" stroke-width="4"/>
<path d="M228.738 308.628C204.528 284.444 192.285 251.928 186.102 225.384C183.013 212.121 181.442 200.374 180.644 191.946C180.245 187.732 180.039 184.349 179.933 182.022C179.882 180.913 179.854 180.043 179.839 179.439C180.418 179.429 181.252 179.42 182.317 179.424C184.55 179.434 187.798 179.501 191.851 179.734C199.957 180.2 211.274 181.327 224.108 183.971C249.796 189.262 281.466 200.61 305.677 224.793C329.887 248.977 342.13 281.493 348.313 308.038C351.402 321.3 352.973 333.047 353.771 341.475C354.17 345.689 354.376 349.072 354.482 351.399C354.533 352.509 354.561 353.378 354.576 353.982C353.997 353.992 353.163 354.001 352.098 353.997C349.865 353.987 346.617 353.92 342.564 353.687C334.458 353.221 323.141 352.094 310.306 349.451C284.619 344.159 252.949 332.811 228.738 308.628Z" fill="#FFC700" stroke="black" stroke-width="4"/>
</svg>
