<svg width="44" height="38" viewBox="0 0 44 38" fill="none" xmlns="http://www.w3.org/2000/svg">
<mask id="path-1-inside-1_2402_4711" fill="white">
<path fill-rule="evenodd" clip-rule="evenodd" d="M8 2C3.58172 2 0 5.58172 0 10V24C0 28.4183 3.58172 32 8 32H18.1538L24.7589 37.0509C25.1455 37.3465 25.6836 36.9718 25.5405 36.5067L24.1538 32H34C38.4183 32 42 28.4183 42 24V10C42 5.58172 38.4183 2 34 2H8Z"/>
</mask>
<path fill-rule="evenodd" clip-rule="evenodd" d="M8 2C3.58172 2 0 5.58172 0 10V24C0 28.4183 3.58172 32 8 32H18.1538L24.7589 37.0509C25.1455 37.3465 25.6836 36.9718 25.5405 36.5067L24.1538 32H34C38.4183 32 42 28.4183 42 24V10C42 5.58172 38.4183 2 34 2H8Z" fill="#101010"/>
<path d="M18.1538 32L18.7613 31.2056L18.4924 31H18.1538V32ZM24.7589 37.0509L25.3664 36.2566H25.3664L24.7589 37.0509ZM25.5405 36.5067L26.4963 36.2126L26.4963 36.2126L25.5405 36.5067ZM24.1538 32V31H22.7999L23.1981 32.2941L24.1538 32ZM1 10C1 6.13401 4.13401 3 8 3V1C3.02944 1 -1 5.02944 -1 10H1ZM1 24V10H-1V24H1ZM8 31C4.13401 31 1 27.866 1 24H-1C-1 28.9706 3.02944 33 8 33V31ZM18.1538 31H8V33H18.1538V31ZM25.3664 36.2566L18.7613 31.2056L17.5464 32.7944L24.1515 37.8453L25.3664 36.2566ZM24.5847 36.8008C24.4416 36.3357 24.9798 35.961 25.3664 36.2566L24.1515 37.8453C25.3111 38.7321 26.9256 37.6079 26.4963 36.2126L24.5847 36.8008ZM23.1981 32.2941L24.5847 36.8008L26.4963 36.2126L25.1096 31.7059L23.1981 32.2941ZM34 31H24.1538V33H34V31ZM41 24C41 27.866 37.866 31 34 31V33C38.9706 33 43 28.9706 43 24H41ZM41 10V24H43V10H41ZM34 3C37.866 3 41 6.13401 41 10H43C43 5.02944 38.9706 1 34 1V3ZM8 3H34V1H8V3Z" fill="#101010" mask="url(#path-1-inside-1_2402_4711)"/>
<mask id="path-3-inside-2_2402_4711" fill="white">
<path fill-rule="evenodd" clip-rule="evenodd" d="M10 0C5.58172 0 2 3.58172 2 8V22C2 26.4183 5.58172 30 10 30H20.1538L26.7589 35.0509C27.1455 35.3465 27.6836 34.9718 27.5405 34.5067L26.1538 30H36C40.4183 30 44 26.4183 44 22V8C44 3.58172 40.4183 0 36 0H10Z"/>
</mask>
<path fill-rule="evenodd" clip-rule="evenodd" d="M10 0C5.58172 0 2 3.58172 2 8V22C2 26.4183 5.58172 30 10 30H20.1538L26.7589 35.0509C27.1455 35.3465 27.6836 34.9718 27.5405 34.5067L26.1538 30H36C40.4183 30 44 26.4183 44 22V8C44 3.58172 40.4183 0 36 0H10Z" fill="#74247A"/>
<path d="M20.1538 30L20.7613 29.2056L20.4924 29H20.1538V30ZM26.7589 35.0509L27.3664 34.2566H27.3664L26.7589 35.0509ZM27.5405 34.5067L28.4963 34.2126L28.4963 34.2126L27.5405 34.5067ZM26.1538 30V29H24.7999L25.1981 30.2941L26.1538 30ZM3 8C3 4.13401 6.13401 1 10 1V-1C5.02944 -1 1 3.02944 1 8H3ZM3 22V8H1V22H3ZM10 29C6.13401 29 3 25.866 3 22H1C1 26.9706 5.02944 31 10 31V29ZM20.1538 29H10V31H20.1538V29ZM27.3664 34.2566L20.7613 29.2056L19.5464 30.7944L26.1515 35.8453L27.3664 34.2566ZM26.5847 34.8008C26.4416 34.3357 26.9798 33.961 27.3664 34.2566L26.1515 35.8453C27.3111 36.7321 28.9256 35.6079 28.4963 34.2126L26.5847 34.8008ZM25.1981 30.2941L26.5847 34.8008L28.4963 34.2126L27.1096 29.7059L25.1981 30.2941ZM36 29H26.1538V31H36V29ZM43 22C43 25.866 39.866 29 36 29V31C40.9706 31 45 26.9706 45 22H43ZM43 8V22H45V8H43ZM36 1C39.866 1 43 4.13401 43 8H45C45 3.02944 40.9706 -1 36 -1V1ZM10 1H36V-1H10V1Z" fill="#101010" mask="url(#path-3-inside-2_2402_4711)"/>
<circle cx="10" cy="15" r="2.5" fill="#5CF1A4" stroke="#101010"/>
<circle cx="20" cy="15" r="2.5" fill="#5CF1A4" stroke="#101010"/>
<rect x="27.5" y="12.5" width="11" height="5" rx="2.5" fill="#FFC700" stroke="#101010"/>
</svg>
