<svg width="358" height="357" viewBox="0 0 358 357" fill="none" xmlns="http://www.w3.org/2000/svg">
<path d="M154.921 92.5482L156.839 92.0319C153.798 71.4559 152.076 50.8101 153.554 34.5155C154.293 26.3659 155.826 19.3707 158.351 14.0336C160.87 8.70875 164.336 5.10846 168.926 3.57109C172.907 2.23792 176.048 1.59424 179.156 1.59424C182.264 1.59424 185.405 2.23792 189.386 3.57109C193.976 5.10849 197.442 8.70889 199.961 14.0339C202.486 19.3712 204.02 26.3666 204.758 34.5164C206.236 50.8115 204.514 71.4578 201.473 92.0342L203.391 92.5505C211.09 73.2277 219.964 54.5065 229.421 41.1544C234.15 34.4766 238.989 29.1961 243.851 25.8472C248.703 22.506 253.508 21.1318 258.25 22.1063C262.362 22.9514 265.402 23.9714 268.089 25.5314C270.777 27.0913 273.171 29.2248 275.945 32.3759C279.098 35.9585 280.3 40.726 279.86 46.4841C279.419 52.2562 277.331 58.9447 273.998 66.2271C267.334 80.7885 255.807 97.4881 243.095 113.568L244.498 114.974C260.606 102.298 277.33 90.8064 291.906 84.1748C299.196 80.8582 305.889 78.785 311.662 78.3567C317.421 77.9294 322.186 79.1412 325.762 82.3025C328.907 85.083 331.035 87.4815 332.589 90.1728C334.143 92.864 335.157 95.9063 335.993 100.02C336.95 104.732 335.591 109.501 332.288 114.311C328.978 119.133 323.759 123.928 317.154 128.614C303.946 137.985 285.411 146.774 266.219 154.41L266.734 156.328C287.172 153.344 307.618 151.687 323.741 153.197C331.805 153.953 338.722 155.495 344 158.016C349.265 160.53 352.827 163.98 354.354 168.539C355.687 172.52 356.331 175.661 356.331 178.769C356.331 181.877 355.687 185.018 354.354 188.999C352.827 193.558 349.265 197.008 344 199.522C338.722 202.043 331.805 203.585 323.741 204.341C307.618 205.851 287.172 204.194 266.734 201.21L266.219 203.128C285.411 210.764 303.946 219.553 317.154 228.924C323.76 233.61 328.979 238.405 332.289 243.227C335.591 248.037 336.95 252.806 335.993 257.518C335.157 261.632 334.143 264.674 332.589 267.365C331.035 270.057 328.907 272.455 325.762 275.236C322.186 278.397 317.422 279.609 311.663 279.181C305.89 278.753 299.197 276.68 291.907 273.363C277.331 266.732 260.607 255.241 244.499 242.565L243.096 243.971C255.808 260.051 267.335 276.75 273.999 291.311C277.331 298.594 279.419 305.282 279.86 311.054C280.3 316.812 279.099 321.58 275.945 325.162C273.172 328.313 270.778 330.447 268.09 332.007C265.402 333.567 262.362 334.587 258.25 335.432C253.508 336.406 248.703 335.032 243.851 331.691C238.989 328.342 234.151 323.061 229.421 316.383C219.964 303.03 211.089 284.309 203.391 264.985L201.473 265.502C204.514 286.078 206.236 306.725 204.758 323.021C204.02 331.171 202.486 338.166 199.961 343.504C197.442 348.829 193.976 352.43 189.386 353.967C185.405 355.3 182.264 355.944 179.156 355.944C176.048 355.944 172.907 355.3 168.926 353.967C164.336 352.43 160.87 348.829 158.351 343.504C155.826 338.167 154.292 331.171 153.554 323.022C152.076 306.727 153.798 286.08 156.839 265.504L154.921 264.988C147.222 284.311 138.348 303.032 128.891 316.384C124.162 323.062 119.324 328.342 114.461 331.691C109.609 335.032 104.804 336.406 100.063 335.432C95.9505 334.587 92.9105 333.567 90.2226 332.007C87.5348 330.447 85.141 328.313 82.3673 325.162C79.2139 321.58 78.0126 316.812 78.4525 311.054C78.8935 305.282 80.9814 298.594 84.3139 291.311C90.9773 276.75 102.505 260.051 115.216 243.971L113.813 242.565C97.706 255.241 80.9813 266.732 66.4056 273.363C59.1159 276.68 52.423 278.753 46.6499 279.181C40.891 279.609 36.1262 278.397 32.5506 275.236C29.4055 272.455 27.2773 270.057 25.7233 267.365C24.1693 264.674 23.1559 261.632 22.3199 257.518C21.3623 252.806 22.7219 248.037 26.0241 243.227C29.3342 238.405 34.5531 233.61 41.1587 228.924C54.3665 219.553 72.9016 210.764 92.0936 203.128L91.5794 201.21C71.1408 204.194 50.6946 205.851 34.5709 204.341C26.507 203.585 19.5899 202.043 14.3121 199.522C9.04692 197.008 5.48508 193.558 3.95811 188.999C2.62494 185.018 1.98126 181.877 1.98126 178.769C1.98126 175.661 2.62494 172.52 3.95811 168.539C5.48508 163.98 9.04692 160.53 14.3121 158.016C19.5899 155.495 26.507 153.953 34.571 153.197C50.6946 151.687 71.1409 153.344 91.5794 156.328L92.0936 154.41C72.9017 146.774 54.3666 137.985 41.1588 128.614C34.5532 123.928 29.3343 119.133 26.0242 114.311C22.722 109.501 21.3625 104.732 22.32 100.02C23.1561 95.9063 24.1695 92.864 25.7235 90.1728C27.2775 87.4815 29.4057 85.083 32.5507 82.3025C36.1264 79.1412 40.8912 77.9294 46.6503 78.3567C52.4234 78.785 59.1164 80.8582 66.4062 84.1748C80.9822 90.8064 97.7071 102.298 113.815 114.974L115.217 113.568C102.506 97.4881 90.9782 80.7885 84.3146 66.2271C80.982 58.9447 78.894 52.2562 78.453 46.4841C78.0131 40.726 79.2144 35.9585 82.3678 32.3759C85.1415 29.2248 87.5353 27.0913 90.2231 25.5314C92.911 23.9714 95.951 22.9514 100.063 22.1063C104.805 21.1318 109.61 22.506 114.461 25.847C119.324 29.1958 124.162 34.476 128.891 41.1536C138.348 54.5052 147.222 73.2259 154.921 92.5482Z" fill="#5CF1A4" stroke="black" stroke-width="4"/>
</svg>
